# xmcd
#
# Track frame offsets: 
#        150
#        23557
#        35815
#        60100
#        77385
#        102565
#        114279
#        142182
#        162792
#        192520
#        202827
#
# Disc length: 2877 seconds
#
# Revision: 0
# Processed by: cddbd v1.5.2PL0 Copyright (c) Steve Scherf et al.
# Submitted via: ExactAudioCopy v0.99pb4
#
DISCID=870b3b0b
DTITLE=Ernie Banks - Señor Blues
DYEAR=1995
DGENRE=Jazz
TTITLE0=You Don't Know What Love Is
TTITLE1=Señor Blues
TTITLE2=This Song is You
TTITLE3=I Should Care
TTITLE4=Someone To Love
TTITLE5=You go to my Head
TTITLE6=Willow Weep for Me
TTITLE7=My Foolish Heart
TTITLE8=This Little Light
TTITLE9=Motherless Child
TTITLE10=Guest Room in Heaven
EXTD=
EXTT0=
EXTT1=
EXTT2=
EXTT3=
EXTT4=
EXTT5=
EXTT6=
EXTT7=
EXTT8=
EXTT9=
EXTT10=
PLAYORDER=
